#!OML:ASF X:\für Bonn\!DataBase\2005_08_11_Bastian_Final\c3d\Bastian.ASF
:FULLY-SPECIFIED
:DEGREES
248
root 0.0458964 4.69073 18.2013 -593.821 -10.5757 -167.725
lowerback 71.3992 3.29438 16.659
upperback 26.5885 -8.04151 4.30375
thorax 10.8514 -11.7632 -1.01526
lowerneck -4.14578 -8.6113 -12.7217
upperneck -17.6904 -10.8277 22.1734
head -2.33654 -6.68211 9.06052
rclavicle -4.77083e-015 -4.85035e-014
rhumerus -29.7857 67.1444 -96.9957
rradius 29.7934
rwrist -34.8291
rhand -18.511 -9.54658
rfingers 7.12502
rthumb 7.77717 -39.3835
lclavicle -4.77083e-015 -4.85035e-014
lhumerus -6.97924 -9.04573 71.6949
lradius 17.0173
lwrist 37.5043
lhand -23.6487 -9.45455
lfingers 7.12502
lthumb 2.81667 20.5066
rfemur -47.3727 -67.4321 -0.59832
rtibia 151.619
rfoot -38.8112 4.08367
rtoes -13.8375
lfemur -74.7711 32.7862 -29.6962
ltibia 148.409
lfoot -21.2733 -6.95221
ltoes 28.4211
249
root 0.0111092 4.63239 18.2103 -594.552 -10.2741 -167.682
lowerback 71.078 3.34021 16.6947
upperback 26.6297 -8.03954 4.49767
thorax 10.9111 -11.8402 -0.848807
lowerneck -4.00435 -8.49804 -12.9408
upperneck -17.5086 -10.6904 21.9153
head -2.34074 -6.56212 9.0203
rclavicle 5.56597e-014 5.48646e-014
rhumerus -33.4422 68.8631 -100.376
rradius 30.1269
rwrist -36.3181
rhand -18.7728 -10.2755
rfingers 7.12502
rthumb 7.52443 -40.1217
lclavicle 5.56597e-014 5.48646e-014
lhumerus -7.24992 -7.72742 72.2406
lradius 16.6607
lwrist 36.4412
lhand -23.2427 -9.13885
lfingers 7.12502
lthumb 3.2087 20.8167
rfemur -45.6094 -67.8159 -2.67827
rtibia 151.762
rfoot -38.8345 4.44065
rtoes -14.5003
lfemur -74.6006 33.0213 -29.8873
ltibia 148.297
lfoot -20.5148 -6.35995
ltoes 29.1667
250
root -0.0220826 4.576 18.2211 -595.293 -9.98034 -167.651
lowerback 70.8025 3.40186 16.6965
upperback 26.6278 -8.0134 4.72772
thorax 10.9225 -11.9167 -0.622779
lowerneck -3.87783 -8.40794 -13.2155
upperneck -17.2626 -10.583 21.6339
head -2.31718 -6.44598 8.97451
rclavicle 2.38542e-014 -3.26007e-014
rhumerus -37.859 70.5491 -104.446
rradius 30.5399
rwrist -37.8959
rhand -19.1133 -10.8934
rfingers 7.12502
rthumb 7.19575 -40.7511
lclavicle 2.38542e-014 -3.26007e-014
lhumerus -7.54873 -6.5034 72.8485
lradius 16.2996
lwrist 35.4656
lhand -22.901 -8.85492
lfingers 7.12502
lthumb 3.53866 21.0955
rfemur -43.9615 -68.1018 -4.63271
rtibia 151.891
rfoot -38.7747 4.71583
rtoes -15.2655
lfemur -74.4845 33.0257 -30.1225
ltibia 148.029
lfoot -19.6133 -5.72964
ltoes 29.7603
251
root -0.054154 4.52119 18.2332 -596.013 -9.64585 -167.621
lowerback 70.5322 3.45563 16.6969
upperback 26.6036 -7.97878 4.94455
thorax 10.903 -11.9822 -0.406529
lowerneck -3.79118 -8.31956 -13.4948
upperneck -16.9636 -10.4776 21.3414
head -2.27196 -6.32618 8.92034
rclavicle -2.8625e-014 -5.1684e-014
rhumerus -43.0337 72.0903 -109.315
rradius 30.9712
rwrist -39.5195
rhand -19.5254 -11.4774
rfingers 7.12502
rthumb 6.79799 -41.3482
lclavicle -2.8625e-014 -5.1684e-014
lhumerus -7.89052 -5.56846 73.4378
lradius 15.9674
lwrist 34.7203
lhand -22.6085 -8.48879
lfingers 7.12502
lthumb 3.82114 21.4567
rfemur -42.465 -68.2738 -6.37112
rtibia 152
rfoot -38.7337 4.98912
rtoes -16.053
lfemur -74.5048 32.7917 -30.3872
ltibia 147.575
lfoot -18.5571 -5.10458
ltoes 30.1458
